<svg xmlns="http://www.w3.org/2000/svg" viewBox="0 0 90.17 81.46"><defs><style>.cls-1{fill:#fff;stroke:#000;stroke-miterlimit:10;stroke-width:2px;}</style></defs><g id="Layer_2" data-name="Layer 2"><g id="Layer_1-2" data-name="Layer 1"><path class="cls-1" d="M65.86,12.78,52.73,40.94,75.37,62.21a0,0,0,0,1,0,.06L47.17,49.14,25.9,71.78a0,0,0,0,1-.06,0L39,43.59,16.33,22.32s0-.09,0-.07L44.53,35.38,65.8,12.74A0,0,0,0,1,65.86,12.78Z"/><polygon class="cls-1" points="45.5 41 40.26 35.49 45.5 5.77 50.73 35.49 45.5 40.46 50.73 45.97 45.5 75.69 40.26 45.97 45.5 41"/><polygon class="cls-1" points="44.24 40.35 39.2 46.24 5.77 40.35 39.2 34.47 45.93 40.35 50.97 34.47 84.4 40.35 50.97 46.24 44.24 40.35"/></g></g></svg>